<?xml version="1.0" standalone="no"?>
<!DOCTYPE svg PUBLIC "-//W3C//DTD SVG 20010904//EN"
 "http://www.w3.org/TR/2001/REC-SVG-20010904/DTD/svg10.dtd">
<svg version="1.0" xmlns="http://www.w3.org/2000/svg"
 width="750.000000pt" height="750.000000pt" viewBox="0 0 750.000000 750.000000"
 preserveAspectRatio="xMidYMid meet">

<g transform="translate(0.000000,750.000000) scale(0.100000,-0.100000)"
fill="#000000" stroke="none">
<path d="M3515 6253 c-364 -45 -662 -148 -955 -329 -492 -304 -886 -821 -1044
-1371 -63 -219 -80 -348 -80 -608 0 -297 27 -467 115 -730 74 -221 256 -541
418 -735 l71 -85 -35 -3 -35 -3 0 -410 0 -409 1815 0 1815 0 0 410 0 410 -72
0 -71 0 20 23 c26 28 48 71 62 122 l11 40 -39 -45 c-24 -28 -38 -53 -36 -67 3
-25 -23 -40 -31 -18 -4 8 -14 15 -24 15 -16 0 -18 -6 -13 -35 5 -34 5 -35 -26
-35 -28 0 -31 3 -32 30 -1 17 -3 35 -4 40 -1 6 -3 24 -4 40 -1 28 -3 30 -42
30 -39 0 -41 -1 -35 -26 4 -15 2 -32 -5 -40 -16 -19 -55 -18 -63 2 -8 22 -7
87 2 101 5 8 53 15 132 20 75 5 124 12 123 18 -2 6 -7 10 -13 9 -5 -1 -82 -2
-169 -2 l-159 -2 -6 -25 c-6 -24 -8 -25 -27 -11 -16 10 -28 12 -46 5 -32 -12
-32 -12 -26 12 5 19 3 21 -20 17 -46 -9 -80 40 -54 75 11 16 41 18 270 24 141
3 257 9 257 13 0 11 -222 20 -491 20 l-248 0 -20 -26 c-26 -33 -26 -54 -2 -86
13 -16 17 -29 10 -39 -13 -20 -11 -93 3 -107 7 -7 30 -13 52 -13 39 -1 40 -2
11 -9 -24 -6 -18 -8 31 -9 55 -1 62 -3 68 -24 3 -12 6 -25 6 -29 0 -5 -60 -8
-134 -8 -106 0 -136 3 -146 15 -7 9 -29 15 -52 15 -35 0 -39 -2 -28 -15 11
-13 -123 -15 -1201 -13 l-1213 3 -83 99 c-270 321 -453 712 -518 1106 -23 136
-30 410 -16 553 54 520 291 1007 681 1397 358 360 808 583 1299 645 197 25
506 17 691 -18 311 -60 589 -176 843 -353 558 -387 927 -984 1007 -1629 15
-119 15 -375 0 -500 -40 -340 -165 -680 -355 -965 -66 -98 -104 -181 -105
-225 0 -14 123 156 184 255 226 365 336 751 336 1180 0 261 -33 471 -110 703
-250 748 -889 1353 -1637 1548 -192 51 -351 69 -578 67 -110 0 -213 -3 -230
-5z m1457 -3833 c4 -27 2 -30 -24 -30 -17 0 -28 5 -28 14 0 8 -3 21 -6 30 -5
12 1 16 24 16 25 0 30 -4 34 -30z m-673 -198 l31 -49 0 -206 c0 -194 -1 -208
-20 -227 -11 -11 -33 -20 -50 -20 -17 0 -39 9 -50 20 -19 19 -20 33 -20 228
l0 207 30 48 c17 26 34 47 39 47 5 0 23 -22 40 -48z m397 -84 c23 -22 24 -28
24 -180 0 -154 -8 -208 -31 -208 -24 0 -101 74 -145 138 l-44 67 0 -81 c0 -88
-14 -118 -41 -91 -8 7 -22 16 -31 20 -16 6 -18 22 -18 151 0 133 2 146 19 156
11 5 22 10 26 10 13 0 75 -70 94 -106 11 -22 34 -59 50 -84 l31 -45 0 126 c0
151 13 177 66 127z m-1698 -22 c12 -13 22 -28 22 -33 0 -6 -27 -13 -61 -17
-33 -3 -65 -8 -70 -12 -5 -3 -9 -21 -9 -41 0 -33 2 -35 26 -29 33 9 64 -1 64
-20 0 -8 7 -14 15 -14 21 0 19 -28 -2 -34 -10 -3 -35 -8 -56 -12 -45 -8 -49
-13 -41 -52 6 -28 9 -30 40 -25 28 5 39 1 61 -21 34 -34 22 -48 -49 -54 -50
-4 -55 -2 -94 35 -36 33 -43 45 -49 93 -3 30 -5 98 -3 150 l3 95 30 6 c17 4
57 7 90 8 51 1 63 -3 83 -23z m918 -8 c22 -22 24 -30 24 -135 l0 -113 42 0
c34 0 46 -6 70 -32 37 -41 26 -52 -60 -56 -62 -2 -70 0 -102 27 l-35 30 -3
150 c-3 149 -3 151 18 151 12 0 33 -10 46 -22z m-390 -10 c17 -17 24 -34 24
-63 1 -60 18 -167 28 -177 17 -17 49 1 65 35 9 18 19 70 24 117 7 78 10 85 31
88 15 2 22 -2 22 -12 0 -9 7 -16 15 -16 12 0 15 -15 15 -72 0 -93 -13 -140
-52 -183 -25 -30 -37 -35 -72 -35 -64 0 -121 46 -141 113 -16 55 -29 202 -20
218 10 16 36 10 61 -13z m-238 -8 c23 -10 58 -36 77 -57 29 -32 35 -45 35 -84
0 -37 -6 -52 -35 -86 -32 -37 -96 -73 -155 -87 -18 -4 -34 1 -58 22 -32 27
-34 30 -38 117 -2 50 -6 109 -10 132 -3 24 -2 47 1 53 11 18 136 11 183 -10z"/>
<path d="M4246 2235 c-4 -10 1 -15 14 -15 13 0 18 5 14 15 -4 8 -10 15 -14 15
-4 0 -10 -7 -14 -15z"/>
<path d="M4219 2189 c-11 -22 12 -44 29 -27 8 8 15 8 25 -1 18 -15 40 8 27 28
-12 20 -70 20 -81 0z"/>
<path d="M4200 2001 c0 -128 2 -151 15 -151 13 0 15 22 15 139 0 111 -3 141
-15 151 -13 11 -15 -5 -15 -139z"/>
<path d="M4302 2138 c-8 -8 -12 -56 -12 -150 0 -116 2 -138 15 -138 13 0 15
23 15 150 0 83 -1 150 -3 150 -2 0 -8 -5 -15 -12z"/>
<path d="M4247 2134 c-4 -4 -7 -70 -7 -146 0 -132 1 -138 20 -138 20 0 20 5
18 142 -3 132 -10 163 -31 142z"/>
<path d="M4200 1820 c0 -6 27 -10 60 -10 33 0 60 4 60 10 0 6 -27 10 -60 10
-33 0 -60 -4 -60 -10z"/>
<path d="M4209 1783 c23 -9 50 -36 45 -45 -7 -11 3 -10 26 2 11 6 24 19 30 30
10 19 7 20 -52 19 -35 0 -57 -3 -49 -6z"/>
<path d="M3201 1956 c1 -47 6 -86 11 -86 40 0 98 67 98 113 0 32 -16 45 -69
53 l-42 7 2 -87z"/>
<path d="M5118 4139 c26 -13 55 -39 70 -62 l27 -41 3 -431 3 -432 -38 -7 c-21
-3 -55 -6 -75 -6 -36 0 -37 1 -28 26 6 14 10 38 10 54 0 35 10 31 -189 65
-191 32 -190 32 -302 -109 -48 -60 -93 -112 -100 -117 -7 -4 -11 -9 -9 -11 3
-2 21 -16 41 -31 38 -27 54 -35 54 -27 0 9 95 93 100 88 8 -8 -23 -152 -34
-156 -27 -9 5 -22 53 -22 28 0 58 -6 65 -12 11 -10 13 -10 7 0 -6 9 52 12 276
12 156 0 300 3 321 6 90 15 19 24 -215 26 l-253 3 2 46 3 47 -48 -1 c-54 0
-62 -8 -62 -59 0 -27 -4 -38 -15 -38 -20 0 -20 2 13 100 l29 85 291 3 c183 1
292 6 292 12 0 6 -27 10 -60 10 l-60 0 0 428 c0 393 -2 430 -19 467 -10 22
-27 48 -37 57 -29 25 -89 48 -126 48 l-33 0 43 -21z"/>
<path d="M3015 4096 c-45 -20 -76 -59 -82 -105 l-6 -41 98 0 c88 0 97 2 90 18
-3 9 -16 45 -27 80 -12 34 -26 62 -32 62 -6 -1 -24 -7 -41 -14z"/>
<path d="M3450 4100 c0 -7 10 -43 22 -81 l23 -69 53 0 c59 0 59 -4 22 105
l-17 50 -51 3 c-34 2 -52 -1 -52 -8z"/>
<path d="M3670 4096 c0 -8 9 -44 20 -80 l21 -66 259 0 c202 0 260 3 259 13 0
6 -10 41 -22 77 l-22 65 -257 3 c-217 2 -258 0 -258 -12z"/>
<path d="M4568 4104 c-4 -3 5 -39 19 -80 l25 -74 53 0 54 0 -9 28 c-5 15 -16
51 -25 80 l-17 52 -47 0 c-26 0 -50 -3 -53 -6z"/>
<path d="M4786 4083 c4 -16 15 -50 24 -78 l17 -50 173 -3 173 -2 -6 37 c-8 48
-34 83 -78 105 -27 15 -60 18 -172 18 l-137 0 6 -27z"/>
<path d="M3192 4048 c-17 -17 -15 -36 6 -47 25 -13 44 1 40 30 -3 27 -27 36
-46 17z"/>
<path d="M3331 4046 c-17 -20 -2 -46 25 -46 29 0 41 24 24 45 -16 19 -34 19
-49 1z"/>
<path d="M4851 3819 c-11 -12 -23 -42 -26 -68 -3 -25 -11 -77 -16 -116 -9 -56
-8 -75 3 -97 l14 -26 20 51 c13 36 27 53 45 60 l27 11 -34 31 c-23 22 -34 42
-34 60 0 23 2 25 15 15 8 -7 35 -11 65 -8 l50 3 0 -52 c0 -50 1 -53 26 -53
l25 0 -19 -25 c-18 -22 -20 -36 -15 -99 l6 -74 -37 -13 c-27 -10 -36 -19 -36
-36 0 -27 32 -31 83 -9 45 18 67 56 76 129 l8 62 2 -50 c1 -46 2 -48 18 -32
22 22 29 132 11 167 -7 14 -35 36 -61 50 -35 18 -56 39 -80 80 -30 51 -35 55
-74 58 -32 2 -46 -2 -62 -19z"/>
<path d="M4698 3762 c-22 -4 -22 -1 -1 -70 l18 -57 3 38 c6 65 -1 93 -20 89z"/>
<path d="M4254 3752 c-7 -4 56 -7 140 -8 110 0 133 2 86 7 -89 9 -213 10 -226
1z"/>
<path d="M4252 3720 c-19 -4 -39 -13 -45 -20 -9 -10 -8 -11 7 -6 61 21 113 26
183 16 41 -5 91 -9 111 -9 20 1 -8 7 -63 15 -113 15 -146 15 -193 4z"/>
<path d="M4122 3697 c-17 -18 -22 -36 -22 -73 l1 -49 40 43 c25 27 39 49 35
58 -3 9 -6 22 -6 30 0 21 -24 17 -48 -9z m28 -46 c0 -6 -4 -13 -10 -16 -5 -3
-10 1 -10 9 0 9 5 16 10 16 6 0 10 -4 10 -9z"/>
<path d="M4252 3680 c-19 -4 -39 -13 -45 -20 -10 -10 -8 -11 8 -6 45 17 123
23 184 15 36 -5 84 -8 106 -7 43 1 -140 26 -190 26 -16 0 -45 -4 -63 -8z"/>
<path d="M2875 3630 c-3 -5 -15 -10 -25 -10 -43 0 -64 -79 -35 -130 l14 -25 1
31 c0 16 6 39 14 49 12 17 18 18 53 7 59 -18 79 -15 102 14 12 15 21 30 21 33
0 9 -93 41 -118 41 -12 0 -24 -4 -27 -10z"/>
<path d="M3536 3573 c-19 -55 -19 -53 -6 -53 6 0 10 7 10 15 0 8 7 15 15 15 8
0 15 -7 15 -16 0 -11 5 -14 16 -10 9 3 17 6 19 6 1 0 -5 20 -14 45 -9 25 -21
45 -27 45 -7 0 -19 -21 -28 -47z m28 2 c3 -8 1 -15 -4 -15 -6 0 -10 7 -10 15
0 8 2 15 4 15 2 0 6 -7 10 -15z"/>
<path d="M3773 3613 c48 -2 126 -2 175 0 48 1 8 3 -88 3 -96 0 -136 -2 -87 -3z"/>
<path d="M4229 3596 c-50 -18 -104 -57 -90 -66 8 -4 4 -13 -10 -26 -11 -10
-26 -28 -31 -39 -6 -11 12 1 39 27 76 70 138 81 286 53 43 -8 88 -15 100 -14
12 0 -18 9 -68 19 -123 26 -210 25 -258 0 -41 -22 -51 -25 -42 -10 10 17 77
47 118 53 21 3 81 -1 134 -9 136 -20 159 -16 33 6 -125 22 -163 23 -211 6z"/>
<path d="M3743 3573 c53 -2 141 -2 195 0 53 1 9 3 -98 3 -107 0 -151 -2 -97
-3z"/>
<path d="M3743 3533 c53 -2 141 -2 195 0 53 1 9 3 -98 3 -107 0 -151 -2 -97
-3z"/>
<path d="M4191 3503 c-30 -15 -66 -44 -80 -63 -24 -34 -24 -34 20 7 75 72 142
85 286 58 43 -8 89 -14 103 -14 42 2 -110 29 -195 35 -74 5 -84 3 -134 -23z"/>
<path d="M4229 3446 c-52 -18 -104 -57 -89 -66 8 -5 9 -10 2 -14 -6 -4 -21
-21 -33 -39 -20 -27 -15 -25 27 14 72 66 128 78 267 56 56 -10 111 -17 122
-16 35 2 -117 29 -196 35 -64 5 -83 3 -124 -15 -57 -25 -71 -20 -24 8 58 35
75 36 309 17 30 -2 42 -2 25 0 -16 3 -63 11 -104 19 -89 18 -134 18 -182 1z"/>
<path d="M3683 3443 c64 -2 170 -2 235 0 64 1 11 3 -118 3 -129 0 -182 -2
-117 -3z"/>
<path d="M3642 3403 c70 -2 187 -2 260 0 73 1 16 3 -127 3 -143 0 -203 -2
-133 -3z"/>
<path d="M4191 3353 c-29 -15 -65 -44 -80 -63 -24 -32 -22 -31 27 12 74 66
127 77 261 55 55 -10 110 -17 123 -16 40 2 -114 29 -197 35 -74 5 -84 4 -134
-23z"/>
<path d="M3642 3363 c70 -2 187 -2 260 0 73 1 16 3 -127 3 -143 0 -203 -2
-133 -3z"/>
<path d="M4233 3296 c-42 -14 -108 -55 -100 -63 3 -2 21 7 42 21 48 33 90 40
184 32 42 -3 101 -8 131 -11 l55 -4 -50 9 c-27 5 -77 13 -110 19 -75 14 -99
13 -152 -3z"/>
<path d="M3572 3295 c10 -10 448 -13 454 -4 3 5 -92 9 -227 9 -128 0 -230 -2
-227 -5z"/>
<path d="M3002 3255 c0 -16 2 -22 5 -12 2 9 2 23 0 30 -3 6 -5 -1 -5 -18z"/>
<path d="M4192 3244 c-29 -14 -64 -41 -77 -58 -37 -49 -30 -48 24 5 70 67 122
78 269 54 61 -9 116 -15 123 -12 8 3 1 6 -16 7 -16 0 -57 7 -90 15 -95 23
-172 19 -233 -11z"/>
<path d="M3521 3255 c9 -9 499 -13 505 -4 3 5 -106 9 -252 9 -142 0 -255 -2
-253 -5z"/>
<path d="M4204 3211 c-39 -18 -114 -85 -114 -103 0 -5 14 7 32 27 66 75 140
94 276 71 125 -22 158 -19 47 4 -117 24 -189 24 -241 1z"/>
<path d="M3522 3215 c9 -9 498 -13 498 -4 0 5 -113 9 -252 9 -138 0 -249 -2
-246 -5z"/>
<path d="M3572 3145 c9 -9 448 -12 448 -3 0 4 -102 8 -227 8 -124 0 -224 -2
-221 -5z"/>
<path d="M3521 3105 c9 -8 499 -12 499 -3 0 4 -113 8 -252 8 -138 0 -249 -2
-247 -5z"/>
<path d="M3520 3060 c0 -6 90 -10 250 -10 160 0 250 4 250 10 0 6 -90 10 -250
10 -160 0 -250 -4 -250 -10z"/>
<path d="M4420 3051 c0 -11 65 -61 78 -61 5 0 15 -6 21 -14 10 -11 4 -12 -36
-4 -89 17 -203 13 -263 -10 -62 -24 -149 -89 -149 -112 -1 -27 16 -45 31 -33
10 9 416 93 448 93 4 0 8 23 8 50 0 42 -3 50 -19 50 -10 0 -24 8 -31 18 -13
19 -88 38 -88 23z"/>
<path d="M2920 3039 c-36 -3 -52 -6 -36 -7 26 -2 28 -4 23 -34 -22 -124 -19
-170 22 -348 23 -96 43 -185 46 -197 5 -21 11 -23 70 -23 36 0 65 1 65 3 0 1
-9 70 -19 152 -11 83 -27 206 -36 275 -25 197 -22 185 -47 185 -13 0 -52 -3
-88 -6z"/>
<path d="M3401 2943 l-1 -113 35 0 c22 0 35 5 35 13 0 7 -15 58 -34 112 l-34
100 -1 -112z"/>
<path d="M2730 3010 c0 -16 3 -30 6 -30 14 0 45 22 54 40 10 18 7 20 -25 20
-32 0 -35 -2 -35 -30z"/>
<path d="M4104 2948 l-19 -23 23 19 c12 11 22 21 22 23 0 8 -8 2 -26 -19z"/>
<path d="M4635 2890 l-30 -15 40 -5 c26 -3 35 -8 27 -13 -6 -5 -19 -21 -27
-38 -13 -23 -13 -29 -2 -29 7 0 21 18 31 40 16 36 21 40 52 40 28 0 35 4 32
17 -4 22 -81 24 -123 3z"/>
<path d="M3852 2858 c3 -20 10 -23 56 -26 55 -3 58 -2 42 29 -8 14 -21 19 -56
19 -41 0 -45 -2 -42 -22z"/>
<path d="M2731 2724 c0 -11 3 -14 6 -6 3 7 2 16 -1 19 -3 4 -6 -2 -5 -13z"/>
<path d="M2731 2684 c0 -11 3 -14 6 -6 3 7 2 16 -1 19 -3 4 -6 -2 -5 -13z"/>
<path d="M3880 2555 c0 -2 14 -34 32 -70 l32 -65 263 0 263 0 -35 70 -35 70
-260 0 c-143 0 -260 -2 -260 -5z"/>
<path d="M2722 2455 c0 -16 2 -22 5 -12 2 9 2 23 0 30 -3 6 -5 -1 -5 -18z"/>
<path d="M1259 1997 c43 -78 93 -169 111 -202 l33 -60 -88 -160 c-48 -88 -98
-179 -112 -202 l-24 -43 528 1 528 0 -167 85 -168 84 0 320 0 320 -359 0 -359
0 77 -143z"/>
<path d="M5678 1823 l-3 -317 -163 -86 -162 -85 521 -3 c287 -1 524 -1 526 1
2 2 -45 91 -103 198 -59 107 -107 199 -107 204 0 6 40 84 90 175 50 91 98 180
107 198 l17 32 -361 0 -360 0 -2 -317z"/>
<path d="M2210 1430 c74 -39 136 -70 137 -70 2 0 3 32 3 70 l0 70 -137 0 -138
-1 135 -69z"/>
<path d="M5230 1430 c0 -38 3 -70 8 -70 4 1 66 32 137 70 l130 70 -137 0 -138
0 0 -70z"/>
</g>
</svg>
